<svg xmlns="http://www.w3.org/2000/svg" viewBox="0 0 64 64">
  <defs>
    <linearGradient id="bg" x1="0" y1="0" x2="1" y2="1">
      <stop offset="0%" stop-color="#7c2d12" />
      <stop offset="100%" stop-color="#b45309" />
    </linearGradient>
    <linearGradient id="mark" x1="0" y1="0" x2="0" y2="1">
      <stop offset="0%" stop-color="#fff7ed" />
      <stop offset="100%" stop-color="#fde68a" />
    </linearGradient>
  </defs>

  <rect width="64" height="64" rx="14" fill="url(#bg)" />

  <circle cx="32" cy="33" r="20" fill="none" stroke="rgba(255,255,255,0.15)" stroke-width="1.2" />

  <g fill="none" stroke="url(#mark)" stroke-linecap="round" stroke-linejoin="round">
    <path d="M32 11c2.7 0 4.8 2.2 4.8 4.8" stroke-width="2.8" />
    <path d="M27.6 17.2c2.1-1.7 6.7-1.7 8.8 0" stroke-width="2.4" />
    <path d="M22 26.3c1.8-3.8 5.1-6.3 10-6.3s8.2 2.5 10 6.3" stroke-width="2.8" />
    <path d="M31.8 24.8c-2.5 2.8-4.7 7.5-4.2 11.3.5 3.7 3 6.9 6.4 6.9 2.8 0 4.8-2 4.8-4.5 0-2.2-1.5-4.1-3.7-4.6" stroke-width="3.1" />
    <path d="M29.6 41.7c.8 4.8 4.7 7.7 9.2 7.7" stroke-width="2.6" />
    <path d="M20.5 33.8c2.2.2 4 .8 5.5 2.1" stroke-width="2.3" />
    <path d="M43.5 33.8c-2.2.2-4 .8-5.5 2.1" stroke-width="2.3" />
    <path d="M26.2 49.2h11.6" stroke-width="2.3" />
  </g>
</svg>
